# xmcd
# 
# Track frame offsets:
#     187
#     19927
#     33840
#     48097
#     64510
# 
# Disc length: 1130
# 
# Revision: 3
# Processed by: cddbd v1.5.2PL0 Copyright (c) Steve Scherf et al.
# Submitted via: BonkEnc v1.0.8
# 
DISCID=32046805
DTITLE=酒井法子 - 有縁千里
DYEAR=1998
DGENRE=JPop
TTITLE0=有縁千里
TTITLE1=我愛美人魚
TTITLE2=夢冒険
TTITLE3=愛的心情
TTITLE4=微笑
EXTD=
EXTT0=
EXTT1=
EXTT2=
EXTT3=
EXTT4=
PLAYORDER=
